HIERARCHY
ROOT Hips
{
	OFFSET 0.00000 0.00000 0.00000
	CHANNELS 6 Xposition Yposition Zposition Zrotation Yrotation Xrotation 
	JOINT LHipJoint
	{
		OFFSET 0 0 0
		CHANNELS 3 Zrotation Yrotation Xrotation
		JOINT LeftHip
		{
			OFFSET 2.36090 -1.39315 1.24752
			CHANNELS 3 Zrotation Yrotation Xrotation
			JOINT LeftKnee
			{
				OFFSET 2.06810 -5.68207 0.00000
				CHANNELS 3 Zrotation Yrotation Xrotation
				JOINT LeftAnkle
				{
					OFFSET 2.46631 -6.77613 0.00000
					CHANNELS 3 Zrotation Yrotation Xrotation
					JOINT LeftToe
					{
						OFFSET 0.26031 -0.71520 1.99545
						CHANNELS 3 Zrotation Yrotation Xrotation
						End Site
						{
							OFFSET 0.00000 -0.00000 1.05957
						}
					}
				}
			}
		}
	}
	JOINT RHipJoint
	{
		OFFSET 0 0 0
		CHANNELS 3 Zrotation Yrotation Xrotation
		JOINT RightHip
		{
			OFFSET -2.25243 -1.39315 1.24752
			CHANNELS 3 Zrotation Yrotation Xrotation
			JOINT RightKnee
			{
				OFFSET -2.17343 -5.97145 0.00000
				CHANNELS 3 Zrotation Yrotation Xrotation
				JOINT RightAnkle
				{
					OFFSET -2.52372 -6.93386 0.00000
					CHANNELS 3 Zrotation Yrotation Xrotation
					JOINT RightToe
					{
						OFFSET -0.22538 -0.61923 2.11447
						CHANNELS 3 Zrotation Yrotation Xrotation
						End Site
						{
							OFFSET -0.00000 -0.00000 1.10506
						}
					}
				}
			}
		}
	}
	JOINT lowerback
	{
		OFFSET 0 0 0
		CHANNELS 3 Zrotation Yrotation Xrotation
		JOINT Chest
		{
			OFFSET 0.01594 2.13103 0.08007
			CHANNELS 3 Zrotation Yrotation Xrotation
			JOINT Chest2
			{
				OFFSET 0.01393 2.09723 0.18338
				CHANNELS 3 Zrotation Yrotation Xrotation
				JOINT lowerneck
				{
					OFFSET 0 0 0
					CHANNELS 3 Zrotation Yrotation Xrotation
					JOINT Neck
					{
						OFFSET 0.05351 1.38915 0.32494
						CHANNELS 3 Zrotation Yrotation Xrotation
						JOINT Head
						{
							OFFSET 0.00711 1.45992 -0.21666
							CHANNELS 3 Zrotation Yrotation Xrotation
							End Site
							{
								OFFSET -0.00433 1.47702 -0.11056
							}
						}
					}
				}
				JOINT LeftCollar
				{
					OFFSET 0 0 0
					CHANNELS 3 Zrotation Yrotation Xrotation
					JOINT LeftShoulder
					{
						OFFSET 2.87198 0.92249 0.11132
CHANNELS 3 Zrotation Xrotation Yrotation
						JOINT LeftElbow
						{
OFFSET 0 -5.527310 0.000000
CHANNELS 3 Zrotation Xrotation Yrotation
							JOINT LeftWrist
							{
OFFSET 0 -3.110590 0.000000
CHANNELS 3 Zrotation Xrotation Yrotation
								JOINT lhand
								{
									OFFSET 0 0 0
CHANNELS 3 Zrotation Xrotation Yrotation
									JOINT LFingers
									{
OFFSET 0 -0.419630 0.000000
CHANNELS 3 Zrotation Xrotation Yrotation
										End Site
										{
OFFSET 0 -0.338310 0.000000
										}
									}
								}
								JOINT LThumb
								{
OFFSET 0 0.000000 0.000000
CHANNELS 3 Zrotation Xrotation Yrotation
									End Site
									{
OFFSET 0 -0.343480 0.343480
									}
								}
							}
						}
					}
				}
				JOINT RightCollar
				{
					OFFSET 0 0 0
					CHANNELS 3 Zrotation Yrotation Xrotation
					JOINT RightShoulder
					{
						OFFSET -2.94710 0.68072 0.32187
CHANNELS 3 Zrotation Xrotation Yrotation
						JOINT RightElbow
						{
OFFSET 0 -5.253960 -0.000000
CHANNELS 3 Zrotation Xrotation Yrotation
							JOINT RightWrist
							{
OFFSET 0 -3.105670 0.000000
CHANNELS 3 Zrotation Xrotation Yrotation
								JOINT rhand
								{
									OFFSET 0 0 0
CHANNELS 3 Zrotation Xrotation Yrotation
									JOINT RFingers
									{
OFFSET 0 -0.498680 0.000000
CHANNELS 3 Zrotation Xrotation Yrotation
										End Site
										{
OFFSET 0 -0.402040 0.000000
										}
									}
								}
								JOINT RThumb
								{
OFFSET 0 0.000000 0.000000
CHANNELS 3 Zrotation Xrotation Yrotation
									End Site
									{
OFFSET 0 -0.408180 0.408180
									}
								}
							}
						}
					}
				}
			}
		}
	}
}
MOTION
Frames: 10
Frame Time: 0.008333333333333333
3.697770 1.106806 20.360905 -91.378330 -63.034946 1.391426 0.000000 0.000000 0.000000 -13.143592 -5.165194 -55.234981 22.389590 19.862524 97.001967 4.960184 6.030759 41.172763 0.346761 3.783646 10.468648 0.000000 0.000000 0.000000 2.691174 9.023271 -48.438047 -35.289355 -13.050318 140.442861 0.677855 17.636683 -4.415169 -0.369904 3.906398 -10.813460 2.310104 8.896565 11.885504 3.345332 11.994877 9.263028 1.117879 5.996851 2.939000 7.357226 5.381045 -11.728851 -0.500332 6.042814 43.132526 -0.648276 2.944241 18.514810 0.000000 0.000000 0.000000 76.092455 -38.471451 -34.534411 18.218618 -28.435900 4.653024 -9.299693 -190.510080 6.256983 0.000000 0.000000 0.000000 -7.125000 0.000000 0.000000 29.395836 -65.431706 -164.851443 0.000000 0.000000 0.000000 -18.740052 -53.317314 78.193761 -22.052282 -33.034065 -6.615213 5.500557 -9.378309 3.515529 0.000000 0.000000 0.000000 7.125000 0.000000 0.000000 -40.962433 -56.433404 167.006087
3.681390 1.109889 20.392543 -91.134632 -63.029114 1.674976 0.000000 0.000000 0.000000 -12.607231 -6.069989 -56.107507 22.502565 19.849148 97.334656 5.086308 6.396636 41.675186 0.339814 3.746030 10.363339 0.000000 0.000000 0.000000 2.201183 9.140930 -48.932560 -35.319463 -13.014736 140.576410 0.703360 18.061706 -4.652306 -0.380427 3.961022 -10.967028 2.470857 8.857185 12.900801 3.378094 11.946781 9.559470 0.939166 5.965852 2.746442 7.128136 5.322950 -11.625686 -0.965182 6.189824 42.921280 -0.805832 2.902324 18.371238 0.000000 0.000000 0.000000 75.733510 -36.558234 -34.719874 19.809877 -30.412095 5.435001 -8.342128 -190.920334 12.761303 0.000000 0.000000 0.000000 -7.125000 0.000000 0.000000 40.678675 -70.651449 -153.735067 0.000000 0.000000 0.000000 -18.665789 -55.246331 75.864396 -20.096507 -30.758201 -5.580763 6.566424 -7.209670 3.809010 0.000000 0.000000 0.000000 7.125000 0.000000 0.000000 -42.113013 -56.192362 166.802469
3.670308 1.120391 20.406492 -90.386983 -63.144914 1.820068 0.000000 0.000000 0.000000 -12.184473 -6.833216 -57.278460 22.474505 19.852575 97.252206 5.248383 5.641148 42.488956 0.300658 3.525493 9.745482 0.000000 0.000000 0.000000 1.318311 9.241399 -49.693073 -35.352795 -12.975175 140.724472 0.719696 18.326457 -4.795946 -0.421774 4.168416 -11.550906 2.601654 8.745955 13.904970 2.990333 11.794640 9.692240 0.351439 5.886167 2.472613 7.156780 5.440984 -11.829385 -1.443476 6.524427 42.474634 -0.963950 2.985477 18.200918 0.000000 0.000000 0.000000 75.986978 -34.274745 -34.974183 22.771995 -33.835067 7.012385 -6.027205 -197.408630 11.458878 0.000000 0.000000 0.000000 -7.125000 0.000000 0.000000 42.522987 -69.111777 -153.785930 0.000000 0.000000 0.000000 -18.232709 -57.283471 73.665629 -18.708429 -29.054370 -4.888609 7.394317 -5.852351 4.199858 0.000000 0.000000 0.000000 7.125000 0.000000 0.000000 -42.835814 -55.887517 166.848345
3.668005 1.135404 20.406303 -89.270945 -63.436941 1.942249 0.000000 0.000000 0.000000 -11.799062 -7.355214 -58.730883 22.339441 19.868269 96.854538 5.334006 4.064064 43.121237 0.295991 3.498263 9.669201 0.000000 0.000000 0.000000 0.244122 9.369879 -50.933647 -35.397513 -12.921615 140.924227 0.772972 18.762224 -4.653577 -0.428158 4.199306 -11.638099 2.471773 8.604894 14.735378 2.437355 11.566786 9.703172 -0.244143 5.758906 2.140705 7.174574 5.701582 -12.180866 -1.814273 7.034499 42.003015 -1.028207 3.152427 18.067402 0.000000 0.000000 0.000000 76.311780 -31.505228 -34.631571 26.111019 -37.314129 8.956441 -4.666310 -202.488089 8.468783 0.000000 0.000000 0.000000 -7.125000 0.000000 0.000000 39.960719 -66.576942 -157.753320 0.000000 0.000000 0.000000 -17.738175 -59.391859 71.920561 -17.762224 -27.851383 -4.437712 7.746958 -5.312414 4.482510 0.000000 0.000000 0.000000 7.125000 0.000000 0.000000 -43.022594 -55.673562 167.012808
3.669226 1.148851 20.393119 -88.226754 -63.979597 2.310930 0.000000 0.000000 0.000000 -11.250261 -7.458226 -60.447980 22.198631 19.883659 96.440303 5.246947 2.895212 42.975075 0.337021 3.730695 10.320357 0.000000 0.000000 0.000000 -0.587441 9.868479 -52.679213 -35.462456 -12.843233 141.215550 0.891354 19.577405 -4.168643 -0.392273 4.021311 -11.136765 2.065489 8.508958 15.404687 2.013772 11.361340 9.665190 -0.548194 5.628601 1.757737 7.104582 6.054286 -12.493342 -2.185993 7.720235 41.555842 -1.043096 3.374225 17.951023 0.000000 0.000000 0.000000 76.159637 -28.300893 -33.768704 29.087133 -40.096126 10.817413 -5.048495 -202.962326 7.551797 0.000000 0.000000 0.000000 -7.125000 0.000000 0.000000 37.976634 -65.929327 -159.547406 0.000000 0.000000 0.000000 -17.567255 -61.495089 70.488164 -17.149962 -27.054990 -4.155364 7.680102 -5.080757 4.597341 0.000000 0.000000 0.000000 7.125000 0.000000 0.000000 -42.815388 -55.589924 167.187153
3.670111 1.156639 20.369560 -87.489871 -64.799382 2.997031 0.000000 0.000000 0.000000 -10.463325 -7.103603 -62.322297 22.109241 19.892992 96.177440 4.998002 2.033694 42.080968 0.265828 3.315705 9.159097 0.000000 0.000000 0.000000 -1.076550 11.002364 -54.814902 -35.551762 -12.734126 141.618917 1.059536 20.525781 -3.240608 -0.290931 3.468075 -9.584858 1.470829 8.481694 15.987733 1.774657 11.217916 9.639181 -0.559637 5.518757 1.360723 6.974507 6.439032 -12.752420 -2.524174 8.461491 41.168155 -1.021455 3.611414 17.859100 0.000000 0.000000 0.000000 75.264961 -24.714219 -31.941046 32.045859 -42.582432 12.772256 -4.941559 -201.455194 7.344106 0.000000 0.000000 0.000000 -7.125000 0.000000 0.000000 37.864549 -65.747608 -159.770437 0.000000 0.000000 0.000000 -17.782579 -63.479890 69.066686 -16.920723 -26.753090 -4.051574 7.496707 -4.907841 4.695218 0.000000 0.000000 0.000000 7.125000 0.000000 0.000000 -42.470195 -55.518708 167.399437
3.670020 1.159919 20.338211 -87.095057 -65.795362 3.966799 0.000000 0.000000 0.000000 -9.433805 -6.517228 -64.223542 22.063371 19.897639 96.042751 4.698746 1.000963 41.000059 0.125212 2.276038 6.269384 0.000000 0.000000 0.000000 -1.297469 12.455684 -57.273198 -35.670720 -12.586031 142.161874 1.162451 20.971804 -2.454573 -0.216667 2.996506 -8.269127 0.728036 8.466945 16.420257 1.566406 11.058176 9.701120 -0.425382 5.394423 1.104925 6.990638 6.839078 -13.187531 -2.710538 9.102646 40.840483 -0.965016 3.849748 17.846216 0.000000 0.000000 0.000000 74.404136 -20.827772 -29.622372 35.444437 -45.123108 15.128697 -3.635442 -200.492104 6.885352 0.000000 0.000000 0.000000 -7.125000 0.000000 0.000000 39.393839 -65.183736 -159.342150 0.000000 0.000000 0.000000 -18.079651 -65.419164 67.796114 -17.071531 -26.951903 -4.119740 6.978413 -5.142987 4.792603 0.000000 0.000000 0.000000 7.125000 0.000000 0.000000 -41.681313 -55.449891 167.774635
3.669362 1.163260 20.302359 -86.969843 -66.834773 5.051526 0.000000 0.000000 0.000000 -8.212320 -5.926792 -65.917165 22.030941 19.900822 95.947370 4.456216 -0.198805 40.219589 0.062678 1.614667 4.441951 0.000000 0.000000 0.000000 -1.329728 13.783760 -59.792135 -35.802456 -12.418679 142.770228 1.152718 20.794489 -2.255420 -0.209772 2.948636 -8.135772 -0.167071 8.457016 16.733167 1.387705 10.872018 9.885797 -0.144692 5.248206 1.013481 7.151028 7.207992 -13.735948 -2.875447 9.625170 40.458124 -0.938241 4.067547 17.835493 0.000000 0.000000 0.000000 73.967085 -16.819897 -27.888219 39.237597 -47.608116 17.875231 -3.382913 -199.669649 6.747859 0.000000 0.000000 0.000000 -7.125000 0.000000 0.000000 39.619337 -65.038570 -159.336647 0.000000 0.000000 0.000000 -18.483403 -67.338974 66.764662 -17.429934 -27.421052 -4.283496 5.909037 -5.651413 4.751456 0.000000 0.000000 0.000000 7.125000 0.000000 0.000000 -40.300680 -55.486233 168.250037
3.667713 1.166190 20.265684 -87.170376 -67.798284 6.199750 0.000000 0.000000 0.000000 -6.802471 -5.460204 -67.282236 22.004619 19.903388 95.870052 4.322252 -1.420717 39.966470 0.066991 1.669334 4.592635 0.000000 0.000000 0.000000 -1.343030 14.754003 -62.013966 -35.908718 -12.280831 143.267133 1.143557 20.553531 -1.908285 -0.183764 2.760912 -7.613771 -1.025561 8.456312 17.083134 1.343497 10.698273 10.164201 0.258725 5.104030 0.991052 7.239273 7.516639 -14.157207 -3.110299 10.107354 40.060246 -0.942800 4.248585 17.782079 0.000000 0.000000 0.000000 73.522221 -12.897881 -26.932857 43.430271 -49.975602 21.029839 -4.382561 -198.920273 6.987730 0.000000 0.000000 0.000000 -7.125000 0.000000 0.000000 38.301464 -65.379449 -159.824265 0.000000 0.000000 0.000000 -19.308610 -69.059224 65.630037 -17.869610 -27.989950 -4.487928 4.655537 -5.736304 4.375464 0.000000 0.000000 0.000000 7.125000 0.000000 0.000000 -38.996914 -55.782995 168.426757
3.661956 1.167383 20.229415 -87.603359 -68.718167 7.380070 0.000000 0.000000 0.000000 -5.272136 -5.094756 -68.382090 21.978497 19.905875 95.793413 4.308916 -2.320932 40.195889 0.102840 2.067434 5.692103 0.000000 0.000000 0.000000 -1.575500 15.140028 -64.001275 -35.998130 -12.162836 143.689406 1.182971 20.663446 -1.442529 -0.164239 2.610704 -7.196769 -1.846813 8.449472 17.404339 1.377082 10.515902 10.558932 0.742459 4.949192 1.109089 7.316396 7.814389 -14.583162 -3.525024 10.653893 39.809950 -1.015170 4.417469 17.839491 0.000000 0.000000 0.000000 72.959031 -9.099890 -26.205102 48.121209 -52.205232 24.682577 -4.652739 -198.723891 6.874518 0.000000 0.000000 0.000000 -7.125000 0.000000 0.000000 37.702113 -65.331931 -160.222111 0.000000 0.000000 0.000000 -20.401916 -70.705697 64.540389 -18.271692 -28.503609 -4.678154 3.666477 -5.674581 3.681742 0.000000 0.000000 0.000000 7.125000 0.000000 0.000000 -38.328416 -56.334869 168.131338
